<svg width="1023" height="388" viewBox="0 0 1023 388" fill="none" xmlns="http://www.w3.org/2000/svg">
<path d="M532.59 124.387C479.408 103.225 261.425 22.9569 16.7056 31.2299C4.08257 31.6572 -2.97401 35.5715 1.20513 39.9644C5.38427 44.3573 19.0864 47.434 31.5553 46.8528C51.115 45.9298 70.435 45.6563 89.4124 45.8956L378.492 350.099C366.126 356.817 352.715 363.312 338.123 369.448C328.805 373.363 324.506 380.166 328.685 384.559C332.864 388.952 343.826 389.157 352.989 385.071C530.5 306.085 549.409 176.862 551.516 144.266C600.107 163.153 739.971 212.86 801.887 185.306C801.904 185.306 801.921 185.289 801.938 185.289H801.956C850.204 163.82 835.063 99.7214 829.839 81.996C853.15 94.8499 923.322 131.292 949.39 119.686C949.39 119.686 949.407 119.686 949.407 119.669C971.536 109.823 953.706 67.5524 948.071 55.4677C962.852 65.074 1008.45 93.397 1022.75 87.0384C1023.3 86.7991 1022.92 85.7394 1021.93 84.6796C1020.92 83.6198 1019.66 82.9532 1019.1 83.1925C1017.54 83.842 1015.55 84.013 1013.26 83.842L938.737 5.4195C940.004 4.51358 941.631 3.93239 943.704 3.84693C944.457 3.81274 944.235 2.92393 943.224 1.86416C942.214 0.8044 940.792 -0.0331755 940.038 0.0010104C920.325 0.667636 934.695 35.4347 940.038 47.0067C924.641 36.9389 869.438 2.39403 838.951 3.4196C838.934 3.4196 838.934 3.4196 838.917 3.4196C802.983 4.6332 813.739 53.3653 818.484 70.048C793.82 56.3224 702.187 8.05181 635.664 10.291C635.664 10.291 635.664 10.291 635.646 10.291C635.629 10.291 635.595 10.291 635.578 10.291C550.197 13.1968 535.227 94.9183 532.59 124.387ZM864.026 11.761L953.055 105.448C952.268 107.567 951.137 109.464 949.613 111.054L852.807 9.17995C856.37 9.70983 860.121 10.5987 864.026 11.761ZM882.25 18.4785L954.631 94.6448C954.682 97.4309 954.46 100.115 953.912 102.559L869.182 13.4019C873.463 14.8548 877.848 16.5812 882.25 18.4785ZM763.281 183.836L612.027 24.6662C617.542 22.3928 623.537 20.6322 630.08 19.487L783.646 181.084C777.429 182.571 770.595 183.46 763.281 183.836ZM725.995 182.178L589.607 38.6482C594.163 34.5972 599.267 30.9906 604.937 27.9651L753.262 184.058C744.629 183.99 735.483 183.323 725.995 182.178ZM638.335 18.4101C639.86 18.2734 641.35 18.1196 642.909 18.0341C649.674 17.7093 656.782 18.0341 664.044 18.8033L807.522 169.803C803.857 172.828 799.575 175.495 794.522 177.614C793.34 178.11 792.09 178.52 790.857 178.947L638.335 18.4101ZM821.995 81.9105C823.211 86.5427 824.735 93.2432 825.831 100.969L785.684 58.7154C797.228 64.2877 806.837 69.2959 813.38 72.8342L821.995 81.9105ZM826.671 108.49C827.133 113.806 827.322 119.447 827.03 125.156L748.038 42.0326C757.304 45.7589 766.142 49.6219 774.277 53.3482L826.671 108.49ZM826.465 131.754C825.866 136.625 824.855 141.48 823.314 146.163L712.19 29.23C720.668 31.8281 729.06 34.751 737.196 37.8278L826.465 131.754ZM821.139 151.701C818.878 156.761 815.897 161.53 811.924 165.734L673.447 19.9998C682.799 21.4527 692.39 23.6406 701.93 26.2558L821.139 151.701ZM921.935 115.088C917.55 114.285 912.874 113.105 908.027 111.652L823.879 23.1107C824.821 20.4613 826.106 18.0683 827.767 16L921.935 115.088ZM829.959 13.7267C831.741 12.137 833.864 10.8722 836.365 9.98332L937.264 116.165C934.181 116.438 930.738 116.319 927.021 115.874L829.959 13.7267ZM901.347 109.533C895.472 107.55 889.461 105.242 883.5 102.781L821.55 37.5885C821.635 33.8622 822.012 30.2385 822.8 26.8883L901.347 109.533ZM842.291 83.2609C839.414 81.7567 836.827 80.3551 834.601 79.1415L826.243 70.3557C825.814 68.766 825.335 66.9371 824.872 64.9372L842.291 83.2609ZM823.365 57.6727C822.526 53.0405 821.858 47.9981 821.618 42.9215L875.056 99.1573C867.16 95.6704 859.59 92.0466 852.807 88.6451L823.365 57.6727ZM947.523 112.849C946.615 113.498 945.639 114.079 944.526 114.558C943.395 115.037 942.162 115.361 940.843 115.652L839.602 9.11157C840.921 8.85517 842.308 8.65006 843.798 8.58169C845.288 8.51332 846.898 8.58168 848.526 8.68424L947.523 112.849ZM615.11 155.41C615.042 154.744 614.802 154.043 614.168 153.359L560.251 96.6276C559.6 95.9438 558.675 95.414 557.647 94.9354C559.805 86.8504 562.786 78.3039 566.776 69.9455L660.961 169.05C644.998 164.811 629.412 160.094 615.11 155.41ZM595.448 148.727C575.015 141.565 559.377 135.36 551.875 132.301C552.047 127.651 552.714 118.079 555.044 106.217L595.448 148.727ZM519.299 194.792L430.732 101.602C456.629 109.396 478.689 116.814 495.885 122.934C496.159 123.378 496.348 123.822 496.776 124.267L527.622 156.726C528.051 157.188 528.633 157.547 529.164 157.94C527.331 167.991 524.317 180.605 519.299 194.792ZM522.296 132.66C526.321 134.198 529.507 135.463 531.922 136.42C531.836 137.907 531.682 139.856 531.425 142.266L522.296 132.66ZM306.728 71.3471L484.016 257.934C484.392 258.344 484.992 258.601 485.506 258.925C477.456 270.07 467.899 281.403 456.629 292.65L233.182 57.5018C258.633 61.1596 283.04 65.4671 306.145 70.1848C306.317 70.5779 306.351 70.9539 306.728 71.3471ZM123.668 46.9725C150.37 48.2032 176.386 50.4082 201.461 53.3482L441.95 306.41C429.772 317.041 415.796 327.519 399.816 337.57L123.668 46.9725ZM495.046 244.772L335.057 76.4066C359.361 81.9105 382.106 87.7392 402.848 93.5167L513.389 209.851C508.662 220.893 502.633 232.671 495.046 244.772ZM677.284 173.17C677.112 172.845 676.975 172.52 676.684 172.213L572.326 62.3903C572.034 62.0827 571.589 61.8092 571.195 61.5357C574.706 55.5019 578.868 49.7245 583.733 44.4598L712.823 180.298C701.194 178.435 689.239 176.007 677.284 173.17ZM925.429 41.0925L947.694 64.5099C949.048 68.0994 950.418 72.1163 951.582 76.3211L909.294 31.8281C915.152 35.0416 920.65 38.2209 925.429 41.0925ZM932.622 45.4854C937.075 48.2545 940.432 50.4424 942.248 51.6218C942.933 53.0405 944.132 55.6728 945.553 59.0743L932.622 45.4854ZM939.422 35.4348L966.089 63.4843C959.769 59.7751 954.22 56.3052 950.298 53.7926L944.218 47.3998C942.847 44.3573 941.066 40.1011 939.422 35.4348ZM935.14 12.6156L999.454 80.3038C996.268 79.0902 992.894 77.6373 989.469 76.0134L935.243 18.94C934.986 16.6667 934.934 14.53 935.14 12.6156ZM1010.6 83.5344C1008.33 83.1412 1005.81 82.4746 1003.14 81.5858L935.551 10.4619C935.945 8.94065 936.579 7.62448 937.486 6.58181L1010.6 83.5344ZM935.722 22.1535L984.69 73.6717C980.425 71.5351 976.143 69.2275 972.033 66.9029L937.966 31.0418C937.041 28.0848 936.27 25.0593 935.722 22.1535ZM902.769 28.3412L952.747 80.9362C953.518 84.2523 954.1 87.6025 954.408 90.8672L888.125 21.1108C893.092 23.3842 898.024 25.8456 902.769 28.3412Z" fill="url(#paint0_radial_616_1601)" fill-opacity="0.05"/>
<defs>
<radialGradient id="paint0_radial_616_1601" cx="0" cy="0" r="1" gradientUnits="userSpaceOnUse" gradientTransform="translate(713.356 109.551) scale(329.426 328.76)">
<stop offset="0.1398" stop-color="#0091B9"/>
<stop offset="0.19" stop-color="#1A9CC0"/>
<stop offset="0.3179" stop-color="#56B6D0"/>
<stop offset="0.4452" stop-color="#89CCDF"/>
<stop offset="0.569" stop-color="#B4DEEA"/>
<stop offset="0.6885" stop-color="#D4EDF3"/>
<stop offset="0.8025" stop-color="#ECF7FA"/>
<stop offset="0.9089" stop-color="#FAFDFE"/>
<stop offset="1" stop-color="white"/>
</radialGradient>
</defs>
</svg>
